<svg fill="none" height="54" viewBox="0 0 52 54" width="52" xmlns="http://www.w3.org/2000/svg" xmlns:xlink="http://www.w3.org/1999/xlink"><linearGradient id="a"><stop offset="0" stop-color="#7f96ff"/><stop offset=".58" stop-color="#f58e8e"/><stop offset="1" stop-color="#f2d398"/></linearGradient><linearGradient id="b" gradientUnits="userSpaceOnUse" x1="-236.527" x2="474.947" xlink:href="#a" y1="434.456" y2="-476.476"/><linearGradient id="c" gradientUnits="userSpaceOnUse" x1="-299.642" x2="446.833" xlink:href="#a" y1="528.64" y2="-433.77"/><linearGradient id="d" gradientUnits="userSpaceOnUse" x1="-349.874" x2="431.851" xlink:href="#a" y1="616.309" y2="-374.305"/><linearGradient id="e" gradientUnits="userSpaceOnUse" x1="-323.04" x2="389.247" xlink:href="#a" y1="569.233" y2="-341.315"/><linearGradient id="f" gradientUnits="userSpaceOnUse" x1="-304.003" x2="450.955" xlink:href="#a" y1="540.29" y2="-424.216"/><linearGradient id="g" gradientUnits="userSpaceOnUse" x1="-268.401" x2="515.598" xlink:href="#a" y1="487.484" y2="-508.197"/><linearGradient id="h" gradientUnits="userSpaceOnUse" x1="-168.674" x2="318.363" xlink:href="#a" y1="404.424" y2="-379.193"/><linearGradient id="i" gradientUnits="userSpaceOnUse" x1="-140.743" x2="364.346" xlink:href="#a" y1="349.785" y2="-463.861"/><linearGradient id="j" gradientUnits="userSpaceOnUse" x1="-132.201" x2="387.898" xlink:href="#a" y1="332.678" y2="-509.374"/><linearGradient id="k" gradientUnits="userSpaceOnUse" x1="-144.984" x2="395.81" xlink:href="#a" y1="353.404" y2="-529.43"/><linearGradient id="l" gradientUnits="userSpaceOnUse" x1="-185.754" x2="376.728" xlink:href="#a" y1="433.782" y2="-480.299"/><linearGradient id="m" gradientUnits="userSpaceOnUse" x1="-190.492" x2="292.57" xlink:href="#a" y1="443.992" y2="-337.689"/><linearGradient id="n" gradientUnits="userSpaceOnUse" x1="-234.124" x2="268.284" xlink:href="#a" y1="529.081" y2="-283.232"/><linearGradient id="o" gradientUnits="userSpaceOnUse" x1="-262.608" x2="259.109" xlink:href="#a" y1="583.398" y2="-261.17"/><linearGradient id="p" gradientUnits="userSpaceOnUse" x1="-268.955" x2="278.18" xlink:href="#a" y1="595.514" y2="-290.499"/><linearGradient id="q" gradientUnits="userSpaceOnUse" x1="-246.429" x2="328.344" xlink:href="#a" y1="558.905" y2="-361.279"/><linearGradient id="r" gradientUnits="userSpaceOnUse" x1="-258.76" x2="133.853" xlink:href="#a" y1="511.149" y2="-209.81"/><linearGradient id="s" gradientUnits="userSpaceOnUse" x1="-249.477" x2="160.162" xlink:href="#a" y1="494.764" y2="-258.333"/><linearGradient id="t" gradientUnits="userSpaceOnUse" x1="-214.19" x2="220.682" xlink:href="#a" y1="438.96" y2="-352.837"/><linearGradient id="u" gradientUnits="userSpaceOnUse" x1="-167.106" x2="291.748" xlink:href="#a" y1="357.769" y2="-478.234"/><linearGradient id="v" gradientUnits="userSpaceOnUse" x1="-132.866" x2="346.842" xlink:href="#a" y1="296.434" y2="-586.079"/><linearGradient id="w" gradientUnits="userSpaceOnUse" x1="-92.812" x2="301.288" xlink:href="#a" y1="229.02" y2="-492.897"/><linearGradient id="x" gradientUnits="userSpaceOnUse" x1="-120.115" x2="294.977" xlink:href="#a" y1="277.133" y2="-479.123"/><linearGradient id="y" gradientUnits="userSpaceOnUse" x1="-176.268" x2="254.821" xlink:href="#a" y1="370.083" y2="-422.633"/><linearGradient id="z" gradientUnits="userSpaceOnUse" x1="-248.057" x2="209.693" xlink:href="#a" y1="494.231" y2="-343.561"/><linearGradient id="A" gradientUnits="userSpaceOnUse" x1="-309.277" x2="170.603" xlink:href="#a" y1="596.223" y2="-285.96"/><linearGradient id="B" gradientUnits="userSpaceOnUse" x1="-208.74" x2="166.27" xlink:href="#a" y1="449.704" y2="-200.259"/><linearGradient id="C" gradientUnits="userSpaceOnUse" x1="-251.718" x2="143.272" xlink:href="#a" y1="525.522" y2="-161.341"/><linearGradient id="D" gradientUnits="userSpaceOnUse" x1="-261.929" x2="154.005" xlink:href="#a" y1="542.555" y2="-182.447"/><linearGradient id="E" gradientUnits="userSpaceOnUse" x1="-235.811" x2="206.395" xlink:href="#a" y1="496.243" y2="-273.42"/><linearGradient id="F" gradientUnits="userSpaceOnUse" x1="-186.002" x2="283.815" xlink:href="#a" y1="407.095" y2="-409.795"/><linearGradient id="G" gradientUnits="userSpaceOnUse" x1="-92.397" x2="282.284" xlink:href="#a" y1="239.83" y2="-410.7"/><linearGradient id="H" gradientUnits="userSpaceOnUse" x1="-70.228" x2="325.604" xlink:href="#a" y1="199.447" y2="-489.333"/><linearGradient id="I" gradientUnits="userSpaceOnUse" x1="-81.337" x2="338.319" xlink:href="#a" y1="219.431" y2="-509.263"/><linearGradient id="J" gradientUnits="userSpaceOnUse" x1="-131.129" x2="313.313" xlink:href="#a" y1="309.728" y2="-461.233"/><linearGradient id="K" gradientUnits="userSpaceOnUse" x1="-206.459" x2="265.374" xlink:href="#a" y1="445.336" y2="-372.762"/><linearGradient id="L" gradientUnits="userSpaceOnUse" x1="-113.118" x2="257.646" xlink:href="#a" y1="299.01" y2="-292.306"/><linearGradient id="M" gradientUnits="userSpaceOnUse" x1="-181.29" x2="213.523" xlink:href="#a" y1="434.414" y2="-192.081"/><linearGradient id="N" gradientUnits="userSpaceOnUse" x1="-238.954" x2="178.8" xlink:href="#a" y1="547.405" y2="-116.586"/><linearGradient id="O" gradientUnits="userSpaceOnUse" x1="-269.24" x2="172.777" xlink:href="#a" y1="602.142" y2="-106.112"/><linearGradient id="P" gradientUnits="userSpaceOnUse" x1="-258.034" x2="218.498" xlink:href="#a" y1="582.391" y2="-178.255"/><linearGradient id="Q" gradientUnits="userSpaceOnUse" x1="-144.289" x2="228.399" xlink:href="#a" y1="360.683" y2="-232.628"/><linearGradient id="R" gradientUnits="userSpaceOnUse" x1="-93.326" x2="300.194" xlink:href="#a" y1="261.139" y2="-364.736"/><linearGradient id="S" gradientUnits="userSpaceOnUse" x1="-56.081" x2="360.316" xlink:href="#a" y1="186.641" y2="-480.151"/><linearGradient id="T" gradientUnits="userSpaceOnUse" x1="-49.737" x2="395.548" xlink:href="#a" y1="174.494" y2="-536.54"/><linearGradient id="U" gradientUnits="userSpaceOnUse" x1="-87.397" x2="389.307" xlink:href="#a" y1="248.58" y2="-511.78"/><linearGradient id="V" gradientUnits="userSpaceOnUse" x1="-24.814" x2="346.981" xlink:href="#a" y1="135.099" y2="-407.899"/><linearGradient id="W" gradientUnits="userSpaceOnUse" x1="-76.44" x2="318.916" xlink:href="#a" y1="245.25" y2="-332.962"/><linearGradient id="X" gradientUnits="userSpaceOnUse" x1="-151.672" x2="270.532" xlink:href="#a" y1="405.625" y2="-212.367"/><linearGradient id="Y" gradientUnits="userSpaceOnUse" x1="-230.746" x2="222.733" xlink:href="#a" y1="575.53" y2="-86.86"/><linearGradient id="Z" gradientUnits="userSpaceOnUse" x1="-284.742" x2="208.176" xlink:href="#a" y1="692.776" y2="-24.989"/><linearGradient id="aa" gradientUnits="userSpaceOnUse" x1="-198.179" x2="173.092" xlink:href="#a" y1="503.991" y2="-40.411"/><linearGradient id="ab" gradientUnits="userSpaceOnUse" x1="-163.559" x2="231.73" xlink:href="#a" y1="431.13" y2="-147.291"/><linearGradient id="ac" gradientUnits="userSpaceOnUse" x1="-108.413" x2="313.818" xlink:href="#a" y1="313.264" y2="-304.687"/><linearGradient id="ad" gradientUnits="userSpaceOnUse" x1="-51.482" x2="400.007" xlink:href="#a" y1="191.623" y2="-470.046"/><linearGradient id="ae" gradientUnits="userSpaceOnUse" x1="6.794" x2="40.928" xlink:href="#a" y1="54.825" y2="-5.502"/><path d="m23.6876 33.5617 1.8949.3125 1.1994-1.4922-.6814-1.8048-1.9117-.3013-1.1882 1.5233.687 1.7597z" fill="url(#b)"/><path d="m31.8948 29.9718-.6644-1.6809-1.7907-.3181-1.1178 1.4247.6194 1.6921 1.8217.3069 1.1318-1.4218z" fill="url(#c)"/><path d="m31.6865 23.42-1.7457-.3125-1.1262 1.3796.6673 1.6668 1.7231.2365 1.0953-1.3514-.611-1.6162z" fill="url(#d)"/><path d="m28.5359 21.8799-.701-1.7598-1.8949-.3125-1.1882 1.5232.6842 1.7738 1.8977.2985 1.2022-1.5204z" fill="url(#e)"/><path d="m22.9611 21.8095-1.8077-.3041-1.1628 1.4359.6758 1.7119 1.7991.245 1.0981-1.3966-.6025-1.6893z" fill="url(#f)"/><path d="m20.0075 26.4439-1.0953 1.3684.6504 1.6668 1.7232.2365 1.0924-1.3374-.6053-1.6752-1.7682-.2563z" fill="url(#g)"/><path d="m14.8015 22.0178-.6983 1.9907 1.3824 1.5767 2.0695-.3886.6983-2.0047-1.3825-1.5654-2.0694.3885z" fill="url(#h)"/><path d="m18.0196 29.5664-1.3177-1.5373-2.0047.3632-.6729 1.9259 1.343 1.526 1.9765-.3745.673-1.9005z" fill="url(#i)"/><path d="m21.0831 36.0817.6475-1.8499-1.281-1.5007-1.8865.4139-.6842 1.8217 1.3065 1.4613 1.9005-.3492z" fill="url(#j)"/><path d="m26.8212 38.5763.6082-1.7457-1.2164-1.4078-1.8357.3351-.6082 1.7456 1.2023 1.4613z" fill="url(#k)"/><path d="m32.1763 35.9127.5828-1.6668-1.1769-1.3712-1.7316.3238-.6335 1.6922 1.1882 1.3965z" fill="url(#l)"/><path d="m34.0093 28.8034-.6983 1.9906 1.3712 1.6021 2.0413-.3886.7377-1.9765-1.3712-1.6162z" fill="url(#m)"/><path d="m36.2083 22.1586-2.016.3632-.6729 1.9005 1.3064 1.5655 2.016-.3632.6729-1.94z" fill="url(#n)"/><path d="m33.9333 18.6054-1.267-1.4867-1.9258.3492-.6476 1.8498 1.2811 1.4866 1.9118-.3491.6447-1.8498z" fill="url(#o)"/><path d="m24.7152 15.3984-.6082 1.7569 1.2164 1.4219 1.8357-.3351.6082-1.771-1.2164-1.4077z" fill="url(#p)"/><path d="m18.8729 17.2482-.6335 1.6922 1.2023 1.343 1.7569-.3097.5828-1.7203-1.1882-1.3318-1.7203.3238z" fill="url(#q)"/><path d="m33.4293 15.1929-.245-2.3003-2.1201-.9433-1.8611 1.3966.259 2.3003 2.1061.9038z" fill="url(#r)"/><path d="m22.4909 11.2482-1.7851 1.3318.2449 2.1708 2.0413.9038 1.757-1.3318-.245-2.1961-2.016-.8785z" fill="url(#s)"/><path d="m13.7653 18.9545 1.9118.839 1.7062-1.2276-.259-2.106-1.9259-.8391-1.6809 1.267.245 2.0695z" fill="url(#t)"/><path d="m13.7541 26.5791-.2055-1.9766-1.8217-.8137-1.6274 1.1882.2591 1.9906 1.8104.7743 1.5908-1.1628z" fill="url(#u)"/><path d="m13.999 35.8874 1.512-1.1234-.2056-1.8752-1.7315-.763-1.512 1.1374.2055 1.8752z" fill="url(#v)"/><path d="m20.5001 42.0394 1.8217-1.3965-.245-2.2891-2.1201-.9038-1.8611 1.3571.259 2.3004z" fill="url(#w)"/><path d="m29.0709 42.7377 1.7569-1.2924-.2449-2.1961-2.0047-.8785-1.7964 1.2924.245 2.2102 2.0413.8672z" fill="url(#x)"/><path d="m37.7709 35.0455-1.9118-.8531-1.6809 1.2529.2084 2.0808 1.9399.8531 1.6922-1.267-.245-2.0695z" fill="url(#y)"/><path d="m39.8264 30.2112 1.6021-1.2023-.245-1.9765-1.8216-.7743-1.5768 1.1882.2056 1.9765z" fill="url(#z)"/><path d="m39.4772 20.7367-.2055-1.8751-1.7316-.749-1.512 1.1234.2084 1.8752 1.7316.763 1.5119-1.1375z" fill="url(#A)"/><path d="m44.0018 21.8348-2.3904-.7883-1.8864 1.7203.5546 2.4552 2.3905.7883 1.8864-1.7203z" fill="url(#B)"/><path d="m35.1469 16.1361 2.275.7489 1.7851-1.602-.504-2.3539-2.275-.7489-1.7851 1.6161z" fill="url(#C)"/><path d="m25.4923 9.67153.4786 2.22427 2.1596.7124 1.6809-1.5261-.4787-2.22427-2.1595-.71234z" fill="url(#D)"/><path d="m17.7353 14.6748 1.602-1.4472-.4392-2.0807-2.03-.673-1.6021 1.4219.4251 2.1061 2.0413.6729z" fill="url(#E)"/><path d="m10.9217 22.1333 1.5007-1.3712-.4139-1.9653-1.9118-.6194-1.51193 1.3318.41389 1.9906 1.92584.6335z" fill="url(#F)"/><path d="m7.5233 32.1652 2.39043.7884 1.88647-1.681-.5181-2.4946-2.41858-.7883-1.88644 1.7062.54341 2.4693z" fill="url(#G)"/><path d="m16.3922 37.8639-2.289-.7489-1.771 1.6274.4899 2.3538 2.2891.7124 1.771-1.6021-.49-2.3398z" fill="url(#H)"/><path d="m26.0328 44.3285-.4392-2.2356-2.1596-.6729-1.7062 1.4866.4787 2.2356 2.1595.7095 1.6668-1.526z" fill="url(#I)"/><path d="m33.8039 39.3252-1.6021 1.4472.4646 2.1061 2.0413.6335 1.5654-1.4078-.4279-2.1061z" fill="url(#J)"/><path d="m41.4424 35.8226 1.5007-1.3458-.4139-1.9653-1.9118-.6335-1.5119 1.3458.4251 1.9653z" fill="url(#K)"/><path d="m40.4346 37.1009-1.757 2.1708.9968 2.61 2.7536.4393 1.771-2.1708-.9967-2.6101-2.7649-.4392z" fill="url(#L)"/><path d="m48.5012 28.4036-.9573-2.4552-2.5988-.3998-1.6668 2.03.9685 2.4946 2.5988.3885 1.6556-2.0553z" fill="url(#M)"/><path d="m40.2908 15.7616.9038 2.3257 2.444.3744 1.5767-1.9117-.9038-2.3144-2.4552-.4139z" fill="url(#N)"/><path d="m33.6857 10.305 1.4612-1.82167-.839-2.17081-2.3003-.37447-1.4613 1.82168.839 2.18489 2.3004.36318z" fill="url(#O)"/><path d="m21.3927 9.54199 1.3571-1.70624-.7743-2.00469-2.1342-.34913-1.3825 1.69216.7743 2.01595 2.1596.34913z" fill="url(#P)"/><path d="m11.1047 16.8991 1.7569-2.1454-.9967-2.6382-2.75365-.4139-1.75692 2.1454.99671 2.6382z" fill="url(#Q)"/><path d="m3.024 25.5965.9573 2.4551 2.59878.3998 1.66682-2.03-.93196-2.4692-2.62412-.4252z" fill="url(#R)"/><path d="m11.2342 38.2271-.8926-2.3144-2.44389-.3885-1.55138 1.9399.8672 2.3257 2.46926.3744 1.55141-1.9399z" fill="url(#S)"/><path d="m17.8508 43.7091-1.4613 1.7963.8278 2.1849 2.3003.3632 1.4613-1.8217-.8391-2.1455-2.289-.3744z" fill="url(#T)"/><path d="m30.1437 44.458-1.3572 1.7062.7771 2.0047 2.1596.3492 1.3571-1.7063-.7771-2.0047z" fill="url(#U)"/><path d="m24.1859 48.6082-1.5373 2.6888 1.5373 2.703h3.1141l1.5767-2.703-1.5767-2.6888z" fill="url(#V)"/><path d="m38.6242 44.0835-1.4613 2.5341 1.4613 2.534h2.9226l1.4612-2.534-1.4612-2.5341z" fill="url(#W)"/><path d="m50.168 32.306h-2.7396l-1.3571 2.365 1.3571 2.3792h2.7396l1.3712-2.3792z" fill="url(#X)"/><path d="m50.0637 21.5251 1.2923-2.2102-1.2923-2.2103h-2.52l-1.2923 2.2103 1.2923 2.2102z" fill="url(#Y)"/><path d="m41.2622 9.42657 1.1882-2.05538-1.1882-2.01595h-2.3398l-1.1881 2.01595 1.1881 2.05538z" fill="url(#Z)"/><path d="m27.3534 5.39183 1.5373-2.70295-1.5373-2.68888h-3.1141l-1.5513 2.68888 1.5513 2.70295z" fill="url(#aa)"/><path d="m12.9009 9.91646 1.4613-2.53402-1.4613-2.53402h-2.90847l-1.47255 2.53402 1.47255 2.53402z" fill="url(#ab)"/><path d="m4.09667 21.694 1.37119-2.3791-1.37119-2.3651h-2.72548l-1.37119 2.3651 1.37119 2.3791h2.72829z" fill="url(#ac)"/><path d="m1.47245 32.4608-1.292352 2.2103 1.292352 2.2243h2.54528l1.26701-2.2243-1.26701-2.2103z" fill="url(#ad)"/><path d="m10.2629 44.5735-1.18815 2.0412 1.18815 2.0554h2.3538l1.1882-2.0554-1.1882-2.0412z" fill="url(#ae)"/></svg>