<svg fill="none" height="160" viewBox="0 0 346 160" width="346" xmlns="http://www.w3.org/2000/svg" xmlns:xlink="http://www.w3.org/1999/xlink"><linearGradient id="a"><stop offset="0" stop-color="#fff"/><stop offset=".309" stop-color="#999" stop-opacity="0"/><stop offset=".98" stop-color="#999"/></linearGradient><linearGradient id="b" gradientUnits="userSpaceOnUse" x1="4.833" x2="87.892" xlink:href="#a" y1="93.302" y2="93.302"/><linearGradient id="c" gradientUnits="userSpaceOnUse" x1="267.745" x2="317.248" xlink:href="#a" y1="132.703" y2="132.703"/><linearGradient id="d" gradientUnits="userSpaceOnUse" x1="24.357" x2="107.417" xlink:href="#a" y1="109.599" y2="109.599"/><linearGradient id="e" gradientUnits="userSpaceOnUse" x1="292.497" x2="342" xlink:href="#a" y1="109.599" y2="109.599"/><linearGradient id="f" gradientUnits="userSpaceOnUse" x1="187.581" x2="221.502" xlink:href="#a" y1="109.18" y2="109.18"/><linearGradient id="g" gradientUnits="userSpaceOnUse" x1="169.707" x2="236.717" xlink:href="#a" y1="115.945" y2="115.945"/><linearGradient id="h"><stop offset="0" stop-color="#fff"/><stop offset=".5" stop-color="#fff" stop-opacity="0"/><stop offset="1" stop-color="#fff"/></linearGradient><linearGradient id="i" gradientUnits="userSpaceOnUse" x1="328.159" x2="49.528" xlink:href="#h" y1="103.872" y2="103.872"/><linearGradient id="j" gradientUnits="userSpaceOnUse" x1="204.729" x2="204.729" xlink:href="#h" y1="261.599" y2="-17.032"/><linearGradient id="k"><stop offset="0" stop-color="#fff"/><stop offset="1" stop-color="#fff" stop-opacity="0"/></linearGradient><linearGradient id="l" gradientUnits="userSpaceOnUse" x1="175.872" x2="207.496" xlink:href="#k" y1="119.318" y2="119.318"/><linearGradient id="m" gradientUnits="userSpaceOnUse" x1="175.872" x2="207.496" xlink:href="#k" y1="119.319" y2="119.319"/><linearGradient id="n" gradientUnits="userSpaceOnUse" x1="103.562" x2="59.985" xlink:href="#k" y1="135.452" y2="135.452"/><linearGradient id="o" gradientUnits="userSpaceOnUse" x1="214.476" x2="191.325" xlink:href="#k" y1="32.735" y2="32.735"/><linearGradient id="p" gradientUnits="userSpaceOnUse" x1="312.062" x2="293.19" xlink:href="#k" y1="120.528" y2="120.528"/><filter id="q" color-interpolation-filters="sRGB" filterUnits="userSpaceOnUse" height="97.735" width="91.06" x=".833" y="48.434"><feFlood flood-opacity="0" result="BackgroundImageFix"/><feColorMatrix in="SourceAlpha" result="hardAlpha" values="0 0 0 0 0 0 0 0 0 0 0 0 0 0 0 0 0 0 127 0"/><feOffset dy="4"/><feGaussianBlur stdDeviation="2"/><feComposite in2="hardAlpha" operator="out"/><feColorMatrix values="0 0 0 0 0 0 0 0 0 0 0 0 0 0 0 0 0 0 0.25 0"/><feBlend in2="BackgroundImageFix" result="effect1_dropShadow_978_8681"/><feBlend in="SourceGraphic" in2="effect1_dropShadow_978_8681" result="shape"/></filter><filter id="r" color-interpolation-filters="sRGB" filterUnits="userSpaceOnUse" height="61.482" width="57.504" x="288.497" y="82.858"><feFlood flood-opacity="0" result="BackgroundImageFix"/><feColorMatrix in="SourceAlpha" result="hardAlpha" values="0 0 0 0 0 0 0 0 0 0 0 0 0 0 0 0 0 0 127 0"/><feOffset dy="4"/><feGaussianBlur stdDeviation="2"/><feComposite in2="hardAlpha" operator="out"/><feColorMatrix values="0 0 0 0 0 0 0 0 0 0 0 0 0 0 0 0 0 0 0.25 0"/><feBlend in2="BackgroundImageFix" result="effect1_dropShadow_978_8681"/><feBlend in="SourceGraphic" in2="effect1_dropShadow_978_8681" result="shape"/></filter><filter id="s" color-interpolation-filters="sRGB" filterUnits="userSpaceOnUse" height="75.01" width="80.396" x="165.707" y="12.736"><feFlood flood-opacity="0" result="BackgroundImageFix"/><feColorMatrix in="SourceAlpha" result="hardAlpha" values="0 0 0 0 0 0 0 0 0 0 0 0 0 0 0 0 0 0 127 0"/><feOffset dy="4"/><feGaussianBlur stdDeviation="2"/><feComposite in2="hardAlpha" operator="out"/><feColorMatrix values="0 0 0 0 0 0 0 0 0 0 0 0 0 0 0 0 0 0 0.25 0"/><feBlend in2="BackgroundImageFix" result="effect1_dropShadow_978_8681"/><feBlend in="SourceGraphic" in2="effect1_dropShadow_978_8681" result="shape"/></filter><filter id="t" color-interpolation-filters="sRGB" filterUnits="userSpaceOnUse" height="71.417" width="71.417" x="151.872" y="83.609"><feFlood flood-opacity="0" result="BackgroundImageFix"/><feColorMatrix in="SourceAlpha" result="hardAlpha" values="0 0 0 0 0 0 0 0 0 0 0 0 0 0 0 0 0 0 127 0"/><feOffset/><feGaussianBlur stdDeviation="12"/><feComposite in2="hardAlpha" operator="out"/><feColorMatrix values="0 0 0 0 1 0 0 0 0 1 0 0 0 0 1 0 0 0 1 0"/><feBlend in2="BackgroundImageFix" result="effect1_dropShadow_978_8681"/><feBlend in="SourceGraphic" in2="effect1_dropShadow_978_8681" result="shape"/></filter><filter id="u" color-interpolation-filters="sRGB" filterUnits="userSpaceOnUse" height="71.417" width="71.417" x="151.872" y="83.611"><feFlood flood-opacity="0" result="BackgroundImageFix"/><feColorMatrix in="SourceAlpha" result="hardAlpha" values="0 0 0 0 0 0 0 0 0 0 0 0 0 0 0 0 0 0 127 0"/><feOffset/><feGaussianBlur stdDeviation="12"/><feComposite in2="hardAlpha" operator="out"/><feColorMatrix values="0 0 0 0 1 0 0 0 0 1 0 0 0 0 1 0 0 0 1 0"/><feBlend in2="BackgroundImageFix" result="effect1_dropShadow_978_8681"/><feBlend in="SourceGraphic" in2="effect1_dropShadow_978_8681" result="shape"/></filter><filter id="v" color-interpolation-filters="sRGB" filterUnits="userSpaceOnUse" height="80.268" width="80.268" x="15.026" y="65.051"><feFlood flood-opacity="0" result="BackgroundImageFix"/><feColorMatrix in="SourceAlpha" result="hardAlpha" values="0 0 0 0 0 0 0 0 0 0 0 0 0 0 0 0 0 0 127 0"/><feOffset dy="2"/><feGaussianBlur stdDeviation="12"/><feComposite in2="hardAlpha" operator="out"/><feColorMatrix values="0 0 0 0 1 0 0 0 0 1 0 0 0 0 1 0 0 0 1 0"/><feBlend in2="BackgroundImageFix" result="effect1_dropShadow_978_8681"/><feBlend in="SourceGraphic" in2="effect1_dropShadow_978_8681" result="shape"/></filter><filter id="w" color-interpolation-filters="sRGB" filterUnits="userSpaceOnUse" height="65.143" width="65.143" x="173.333" y=".164"><feFlood flood-opacity="0" result="BackgroundImageFix"/><feColorMatrix in="SourceAlpha" result="hardAlpha" values="0 0 0 0 0 0 0 0 0 0 0 0 0 0 0 0 0 0 127 0"/><feOffset/><feGaussianBlur stdDeviation="12"/><feComposite in2="hardAlpha" operator="out"/><feColorMatrix values="0 0 0 0 1 0 0 0 0 1 0 0 0 0 1 0 0 0 1 0"/><feBlend in2="BackgroundImageFix" result="effect1_dropShadow_978_8681"/><feBlend in="SourceGraphic" in2="effect1_dropShadow_978_8681" result="shape"/></filter><filter id="x" color-interpolation-filters="sRGB" filterUnits="userSpaceOnUse" height="61.975" width="61.975" x="274.087" y="89.541"><feFlood flood-opacity="0" result="BackgroundImageFix"/><feColorMatrix in="SourceAlpha" result="hardAlpha" values="0 0 0 0 0 0 0 0 0 0 0 0 0 0 0 0 0 0 127 0"/><feOffset/><feGaussianBlur stdDeviation="12"/><feComposite in2="hardAlpha" operator="out"/><feColorMatrix values="0 0 0 0 1 0 0 0 0 1 0 0 0 0 1 0 0 0 1 0"/><feBlend in2="BackgroundImageFix" result="effect1_dropShadow_978_8681"/><feBlend in="SourceGraphic" in2="effect1_dropShadow_978_8681" result="shape"/></filter><g opacity=".9"><g filter="url(#q)"><rect height="89.235" rx="3.75" shape-rendering="crispEdges" stroke="url(#b)" stroke-width=".5" width="82.56" x="5.083" y="48.684"/></g><rect height="52.982" rx="3.75" stroke="url(#c)" stroke-width=".5" width="49.004" x="267.995" y="106.212"/><rect height="89.235" rx="3.75" stroke="url(#d)" stroke-width=".5" width="82.56" x="24.607" y="64.981"/><g filter="url(#r)"><rect height="52.982" rx="3.75" shape-rendering="crispEdges" stroke="url(#e)" stroke-width=".5" width="49.004" x="292.747" y="83.108"/></g><rect height="36.148" rx="3.75" stroke="url(#f)" stroke-width=".5" transform="matrix(0 -1 1 0 97.225 278.437)" width="33.422" x="187.831" y="90.606"/><g filter="url(#s)"><rect height="71.896" rx="3.75" shape-rendering="crispEdges" stroke="url(#g)" stroke-width=".5" transform="matrix(0 -1 1 0 90.46 249.454)" width="66.511" x="169.957" y="79.497"/></g><path d="m107.417 103.872h61.76c9.471 0 17.149 7.677 17.149 17.148 0 9.471 7.677 17.149 17.148 17.149h64.271" stroke="url(#i)" stroke-linecap="round"/><path d="m204.729 90.8562c0 15.9658-12.943 28.9088-28.909 28.9088h-5.388" stroke="url(#j)" stroke-linecap="round"/><g filter="url(#t)"><path d="m187.58 107.609c3.105 0 6.083 1.233 8.279 3.429 2.195 2.195 3.429 5.172 3.43 8.277s-1.232 6.083-3.426 8.279c-2.195 2.196-5.172 3.431-8.277 3.433-3.105.001-6.083-1.231-8.28-3.425s-3.432-5.17-3.434-8.275c-.003-3.105 1.228-6.084 3.422-8.281 2.193-2.197 5.17-3.434 8.275-3.437z" fill="url(#l)" shape-rendering="crispEdges"/></g><g filter="url(#u)"><path d="m187.58 107.611c3.105 0 6.083 1.233 8.279 3.428 2.195 2.195 3.429 5.173 3.43 8.277.001 3.105-1.232 6.083-3.426 8.28-2.195 2.196-5.172 3.431-8.277 3.432-3.105.002-6.083-1.23-8.28-3.424s-3.432-5.171-3.434-8.276c-.003-3.105 1.228-6.083 3.422-8.281 2.193-2.197 5.17-3.433 8.275-3.436z" fill="url(#m)" shape-rendering="crispEdges"/></g><g filter="url(#v)" opacity=".4"><rect fill="url(#n)" height="32.268" rx="4" shape-rendering="crispEdges" transform="matrix(-1 -0 0 -1 142.588 238.636)" width="32.268" x="71.294" y="119.318"/></g><g filter="url(#w)" opacity=".4"><rect fill="url(#o)" height="17.143" rx="4" shape-rendering="crispEdges" width="17.143" x="197.333" y="24.164"/></g><g filter="url(#x)" opacity=".4"><rect fill="url(#p)" height="13.975" rx="4" shape-rendering="crispEdges" width="13.975" x="298.087" y="113.541"/></g></g></svg>