<svg fill="none" height="290" viewBox="0 0 290 290" width="290" xmlns="http://www.w3.org/2000/svg" xmlns:xlink="http://www.w3.org/1999/xlink"><linearGradient id="a"><stop offset="0" stop-color="#fff"/><stop offset="1" stop-color="#fff" stop-opacity="0"/></linearGradient><linearGradient id="b" gradientUnits="userSpaceOnUse" x1="44.609" x2="315.603" xlink:href="#a" y1="145.185" y2="145.185"/><linearGradient id="c"><stop offset="0" stop-color="#fff"/><stop offset=".309" stop-color="#999" stop-opacity="0"/><stop offset=".98" stop-color="#999"/></linearGradient><linearGradient id="d" gradientUnits="userSpaceOnUse" x1="116.148" x2="160.645" xlink:href="#c" y1="136.791" y2="132.402"/><linearGradient id="e" gradientUnits="userSpaceOnUse" x1="177.666" x2="260.46" xlink:href="#c" y1="138.55" y2="101.793"/><linearGradient id="f" gradientUnits="userSpaceOnUse" x1="156.328" x2="125.578" xlink:href="#a" y1="138.611" y2="156.364"/><linearGradient id="g" gradientUnits="userSpaceOnUse" x1="215.494" x2="279.017" xlink:href="#c" y1="171.382" y2="201.002"/><linearGradient id="h" gradientUnits="userSpaceOnUse" x1="81.241" x2="102.327" xlink:href="#c" y1="132.688" y2="109.745"/><linearGradient id="i" gradientUnits="userSpaceOnUse" x1="115.571" x2="27.068" xlink:href="#c" y1="158.178" y2="196.006"/><linearGradient id="j" gradientUnits="userSpaceOnUse" x1="154.47" x2="184.804" xlink:href="#c" y1="173.523" y2="227.053"/><linearGradient id="k" gradientUnits="userSpaceOnUse" x1="111.247" x2="161.804" xlink:href="#c" y1="135.166" y2="130.179"/><linearGradient id="l" gradientUnits="userSpaceOnUse" x1="181.145" x2="275.216" xlink:href="#c" y1="137.164" y2="95.4"/><linearGradient id="m" gradientUnits="userSpaceOnUse" x1="224.125" x2="296.3" xlink:href="#c" y1="174.47" y2="208.124"/><linearGradient id="n" gradientUnits="userSpaceOnUse" x1="71.585" x2="95.543" xlink:href="#c" y1="130.505" y2="104.436"/><linearGradient id="o" gradientUnits="userSpaceOnUse" x1="110.592" x2="10.033" xlink:href="#c" y1="159.466" y2="202.447"/><linearGradient id="p" gradientUnits="userSpaceOnUse" x1="154.789" x2="189.254" xlink:href="#c" y1="176.902" y2="237.724"/><linearGradient id="q" gradientUnits="userSpaceOnUse" x1="104.144" x2="163.485" xlink:href="#c" y1="132.812" y2="126.959"/><linearGradient id="r" gradientUnits="userSpaceOnUse" x1="186.185" x2="296.598" xlink:href="#c" y1="135.157" y2="86.137"/><linearGradient id="s" gradientUnits="userSpaceOnUse" x1="236.632" x2="321.346" xlink:href="#c" y1="178.944" y2="218.445"/><linearGradient id="t" gradientUnits="userSpaceOnUse" x1="57.592" x2="85.712" xlink:href="#c" y1="127.34" y2="96.743"/><linearGradient id="u" gradientUnits="userSpaceOnUse" x1="103.375" x2="-14.653" xlink:href="#c" y1="161.333" y2="211.78"/><linearGradient id="v" gradientUnits="userSpaceOnUse" x1="155.25" x2="195.703" xlink:href="#c" y1="181.799" y2="253.186"/><linearGradient id="w"><stop offset="0" stop-color="#fff" stop-opacity="0"/><stop offset=".071" stop-color="#fff" stop-opacity=".333"/><stop offset=".214" stop-color="#fff"/><stop offset=".559" stop-color="#fff"/><stop offset=".561" stop-color="#fff" stop-opacity=".2"/><stop offset=".674" stop-color="#fff"/><stop offset=".675" stop-color="#fff" stop-opacity=".2"/><stop offset=".798" stop-color="#fff"/><stop offset=".799" stop-color="#fff" stop-opacity="0"/><stop offset=".91" stop-color="#fff" stop-opacity=".55"/><stop offset="1" stop-color="#fff" stop-opacity="0"/></linearGradient><radialGradient id="x" cx="0" cy="0" gradientTransform="matrix(-65.59391023 49.52375354 -63.68508695 -84.35051016 164.121562 118.109274)" gradientUnits="userSpaceOnUse" r="1" xlink:href="#w"/><radialGradient id="y" cx="0" cy="0" gradientTransform="matrix(-102.95452 77.73121 -99.9588 -132.39483 175.087 102.257)" gradientUnits="userSpaceOnUse" r="1" xlink:href="#w"/><radialGradient id="z" cx="0" cy="0" gradientTransform="matrix(-68.15207097 51.45517861 -66.16881257 -87.64018963 164.5265 117.079575)" gradientUnits="userSpaceOnUse" r="1" xlink:href="#w"/><radialGradient id="A" cx="0" cy="0" gradientTransform="matrix(-106.96965 80.76266 -103.85733 -137.5584 175.723 100.639)" gradientUnits="userSpaceOnUse" r="1" xlink:href="#w"/><radialGradient id="B" cx="0" cy="0" gradientTransform="matrix(-63.00494366 47.56906991 -61.17183621 -81.02172484 163.375515 119.207281)" gradientUnits="userSpaceOnUse" r="1" xlink:href="#w"/><radialGradient id="C" cx="0" cy="0" gradientTransform="matrix(-98.89070189 74.66300959 -96.01328857 -127.16901649 173.914554 103.979547)" gradientUnits="userSpaceOnUse" r="1" xlink:href="#w"/><radialGradient id="D" cx="0" cy="0" gradientTransform="matrix(-56.42502605 42.60119688 -54.78320222 -72.560018 161.477181 121.993432)" gradientUnits="userSpaceOnUse" r="1" xlink:href="#w"/><radialGradient id="E" cx="0" cy="0" gradientTransform="matrix(-88.56356643 66.865967 -85.98619539 -113.88819259 170.935731 108.35178)" gradientUnits="userSpaceOnUse" r="1" xlink:href="#w"/><radialGradient id="F" cx="0" cy="0" gradientTransform="matrix(-51.88723165 39.17513781 -50.37745137 -66.72462781 160.169351 123.915698)" gradientUnits="userSpaceOnUse" r="1" xlink:href="#w"/><radialGradient id="G" cx="0" cy="0" gradientTransform="matrix(-81.44071604 61.48817681 -79.07129116 -104.72944401 168.880649 111.368458)" gradientUnits="userSpaceOnUse" r="1" xlink:href="#w"/><radialGradient id="H" cx="0" cy="0" gradientTransform="matrix(-45.7247091 34.52240027 -44.3942154 -58.79986817 158.391871 126.525349)" gradientUnits="userSpaceOnUse" r="1" xlink:href="#w"/><radialGradient id="I" cx="0" cy="0" gradientTransform="matrix(-71.76840396 54.18552938 -69.67989195 -92.2905929 166.093283 115.464531)" gradientUnits="userSpaceOnUse" r="1" xlink:href="#w"/><filter id="J" color-interpolation-filters="sRGB" filterUnits="userSpaceOnUse" height="127.815" width="127.815" x="80.964" y="82.035"><feFlood flood-opacity="0" result="BackgroundImageFix"/><feBlend in="SourceGraphic" in2="BackgroundImageFix" result="shape"/><feGaussianBlur result="effect1_foregroundBlur_978_8604" stdDeviation="1.09"/></filter><filter id="K" color-interpolation-filters="sRGB" filterUnits="userSpaceOnUse" height="288.667" width="288.667" x=".609" y=".851"><feFlood flood-opacity="0" result="BackgroundImageFix"/><feColorMatrix in="SourceAlpha" result="hardAlpha" values="0 0 0 0 0 0 0 0 0 0 0 0 0 0 0 0 0 0 127 0"/><feOffset/><feGaussianBlur stdDeviation="12"/><feComposite in2="hardAlpha" operator="out"/><feColorMatrix values="0 0 0 0 1 0 0 0 0 1 0 0 0 0 1 0 0 0 1 0"/><feBlend in2="BackgroundImageFix" result="effect1_dropShadow_978_8604"/><feBlend in="SourceGraphic" in2="effect1_dropShadow_978_8604" result="shape"/><feGaussianBlur result="effect2_foregroundBlur_978_8604" stdDeviation="22"/></filter><filter id="L" color-interpolation-filters="sRGB" filterUnits="userSpaceOnUse" height="74.293" width="74.292" x="107.797" y="108.038"><feFlood flood-opacity="0" result="BackgroundImageFix"/><feColorMatrix in="SourceAlpha" result="hardAlpha" values="0 0 0 0 0 0 0 0 0 0 0 0 0 0 0 0 0 0 127 0"/><feOffset/><feGaussianBlur stdDeviation="12"/><feComposite in2="hardAlpha" operator="out"/><feColorMatrix values="0 0 0 0 1 0 0 0 0 1 0 0 0 0 1 0 0 0 1 0"/><feBlend in2="BackgroundImageFix" result="effect1_dropShadow_978_8604"/><feBlend in="SourceGraphic" in2="effect1_dropShadow_978_8604" result="shape"/></filter><g filter="url(#J)" stroke-linecap="round" stroke-linejoin="round" stroke-width=".074"><g stroke-dasharray="17.66 17.66"><circle cx="145.204" cy="145.891" opacity=".6" r="37.855" stroke="url(#x)" transform="matrix(.96814764 .25038 -.25038 .96814764 41.153279 -31.709206)"/><circle cx="145.394" cy="145.861" opacity=".6" r="59.416" stroke="url(#y)" transform="matrix(.96814764 .25038 -.25038 .96814764 41.15182 -31.757733)"/><circle cx="144.872" cy="145.943" opacity=".6" r="39.331" stroke="url(#z)" transform="matrix(-.34202014 .93969262 -.93969262 -.34202014 331.562702 59.723296)"/><circle cx="144.872" cy="145.943" opacity=".6" r="61.733" stroke="url(#A)" transform="matrix(-.34202014 .93969262 -.93969262 -.34202014 331.562702 59.723296)"/></g><circle cx="145.204" cy="145.891" opacity=".5" r="36.361" stroke="url(#B)" stroke-dasharray="14.72 14.72" transform="matrix(.8571673 .51503807 -.51503807 .8571673 95.879299 -53.947583)"/><circle cx="145.394" cy="145.861" opacity=".5" r="57.071" stroke="url(#C)" stroke-dasharray="14.72 14.72" transform="matrix(.8571673 .51503807 -.51503807 .8571673 95.890986 -54.049726)"/><circle cx="145.204" cy="145.891" opacity=".4" r="32.563" stroke="url(#D)" stroke-dasharray="11.77 11.77" transform="matrix(.94832366 .31730466 -.31730466 .94832366 53.795506 -38.534792)"/><circle cx="145.394" cy="145.861" opacity=".4" r="51.111" stroke="url(#E)" stroke-dasharray="11.77 11.77" transform="matrix(.94832366 .31730466 -.31730466 .94832366 53.795805 -38.59663)"/><circle cx="145.204" cy="145.89" opacity=".3" r="29.945" stroke="url(#F)" stroke-dasharray="8.83 8.83" transform="matrix(.9961947 .08715574 -.08715574 .9961947 13.267696 -12.100207)"/><circle cx="145.394" cy="145.861" opacity=".3" r="47" stroke="url(#G)" stroke-dasharray="8.83 8.83" transform="matrix(.9961947 .08715574 -.08715574 .9961947 13.265892 -12.116877)"/><circle cx="145.204" cy="145.891" opacity=".2" r="26.388" stroke="url(#H)" stroke-dasharray="8.83 8.83" transform="matrix(.95881973 .28401534 -.28401534 .95881973 47.414822 -35.232334)"/><circle cx="145.394" cy="145.861" opacity=".2" r="41.418" stroke="url(#I)" stroke-dasharray="8.83 8.83" transform="matrix(.95881973 .28401534 -.28401534 .95881973 47.414126 -35.287532)"/></g><g filter="url(#K)" opacity=".3"><path d="m144.943 44.851c26.605 0 52.122 10.5674 70.937 29.3782 18.816 18.8108 29.39 44.3248 29.396 70.9298.007 26.606-10.554 52.125-29.36 70.946-18.806 18.82-44.317 29.4-70.923 29.413-26.606.014-52.1277-10.541-70.9526-29.342-18.8249-18.802-29.4114-44.311-29.4314-70.916-.02-26.606 10.5283-52.1304 29.325-70.96 18.7966-18.8296 44.303-29.4224 70.908-29.449z" fill="url(#b)" shape-rendering="crispEdges"/></g><rect fill="#fafafa" fill-opacity=".05" height="33.106" rx="3.75" stroke="url(#d)" stroke-width=".5" transform="matrix(0 -1 1 0 1.049 231.747)" width="33.11" x="116.398" y="115.349"/><rect fill="#fafafa" fill-opacity=".05" height="58.157" rx="3.75" stroke="url(#e)" stroke-width=".5" width="58.163" x="180.596" y="91.589"/><g filter="url(#L)"><path d="m151.516 156.569c-3.019 1.743-6.607 2.215-9.974 1.314-3.367-.902-6.239-3.105-7.982-6.123-1.744-3.019-2.218-6.606-1.317-9.974.901-3.367 3.103-6.239 6.121-7.984 3.018-1.744 6.606-2.219 9.973-1.318 3.368.9 6.241 3.101 7.986 6.118 1.745 3.018 2.22 6.605 1.321 9.973s-3.099 6.241-6.117 7.987z" fill="url(#f)" shape-rendering="crispEdges"/></g><g fill="#fafafa" fill-opacity=".05" stroke-width=".5"><rect height="16.447" rx="3.75" stroke="url(#g)" width="16.449" x="219.465" y="177.354"/><rect height="16.447" rx="3.75" stroke="url(#h)" transform="matrix(0 -1 1 0 -34 196.982)" width="16.449" x="81.491" y="115.491"/><rect height="45.736" rx="3.75" stroke="url(#i)" width="45.74" x="65.504" y="143.478"/><rect height="38.842" rx="3.75" stroke="url(#j)" width="38.846" x="141.25" y="176.354"/><rect height="37.684" rx="3.75" stroke="url(#k)" transform="matrix(0 -1 1 0 .66 222.334)" width="37.688" x="111.497" y="110.837"/><rect height="66.147" rx="3.75" stroke="url(#l)" width="66.154" x="184.439" y="83.772"/><rect height="18.756" rx="3.75" stroke="url(#m)" width="18.758" x="228.603" y="181.222"/><rect height="18.756" rx="3.75" stroke="url(#n)" transform="matrix(0 -1 1 0 -39.164 182.834)" width="18.758" x="71.835" y="110.999"/><rect height="52.033" rx="3.75" stroke="url(#o)" width="52.039" x="53.671" y="142.729"/><rect height="44.201" rx="3.75" stroke="url(#p)" width="44.205" x="139.734" y="180.085"/><rect height="44.318" rx="3.75" stroke="url(#q)" transform="matrix(0 -1 1 0 .094 208.694)" width="44.322" x="104.394" y="104.3"/><rect height="77.725" rx="3.75" stroke="url(#r)" width="77.733" x="190.008" y="72.446"/><rect height="22.101" rx="3.75" stroke="url(#s)" width="22.103" x="241.844" y="186.825"/><rect height="22.101" rx="3.75" stroke="url(#t)" transform="matrix(0 -1 1 0 -46.647 162.331)" width="22.103" x="57.842" y="104.489"/><rect height="61.159" rx="3.75" stroke="url(#u)" width="61.166" x="36.523" y="141.646"/><rect height="51.966" rx="3.75" stroke="url(#v)" width="51.971" x="137.537" y="185.491"/></g></svg>