<svg fill="none" height="236" viewBox="0 0 291 236" width="291" xmlns="http://www.w3.org/2000/svg" xmlns:xlink="http://www.w3.org/1999/xlink"><linearGradient id="a" gradientUnits="userSpaceOnUse" x1="58.115" x2="234.884" y1="113.942" y2="113.942"><stop offset="0" stop-color="#fff"/><stop offset=".309" stop-color="#999" stop-opacity="0"/><stop offset=".98" stop-color="#999"/></linearGradient><linearGradient id="b"><stop offset="0" stop-color="#fff" stop-opacity="0"/><stop offset=".26" stop-color="#fff"/><stop offset=".63" stop-color="#fff" stop-opacity="0"/><stop offset="1" stop-color="#fff"/></linearGradient><linearGradient id="c" gradientUnits="userSpaceOnUse" x1="129.946" x2="49.022" xlink:href="#b" y1="80.584" y2="80.584"/><linearGradient id="d" gradientUnits="userSpaceOnUse" x1="101.153" x2="56.572" xlink:href="#b" y1="141.09" y2="141.09"/><linearGradient id="e" gradientUnits="userSpaceOnUse" x1="237.481" x2="192.901" xlink:href="#b" y1="80.584" y2="80.584"/><linearGradient id="f" gradientUnits="userSpaceOnUse" x1="207.741" x2="207.741" xlink:href="#b" y1="148.409" y2="94.528"/><linearGradient id="g" gradientUnits="userSpaceOnUse" x1="129.946" x2="49.022" xlink:href="#b" y1="83.373" y2="83.373"/><linearGradient id="h" gradientUnits="userSpaceOnUse" x1="101.153" x2="56.572" xlink:href="#b" y1="143.879" y2="143.879"/><linearGradient id="i" gradientUnits="userSpaceOnUse" x1="237.481" x2="192.901" xlink:href="#b" y1="83.373" y2="83.373"/><linearGradient id="j" gradientUnits="userSpaceOnUse" x1="204.952" x2="204.952" xlink:href="#b" y1="148.409" y2="94.528"/><linearGradient id="k" gradientUnits="userSpaceOnUse" x1="129.946" x2="49.022" xlink:href="#b" y1="86.162" y2="86.162"/><linearGradient id="l" gradientUnits="userSpaceOnUse" x1="101.153" x2="56.572" xlink:href="#b" y1="146.668" y2="146.668"/><linearGradient id="m" gradientUnits="userSpaceOnUse" x1="237.481" x2="192.901" xlink:href="#b" y1="86.162" y2="86.162"/><linearGradient id="n" gradientUnits="userSpaceOnUse" x1="202.163" x2="202.163" xlink:href="#b" y1="148.409" y2="94.528"/><linearGradient id="o" gradientUnits="userSpaceOnUse" x1="287.971" x2="9.34" y1="113.863" y2="113.863"><stop offset="0" stop-color="#fff"/><stop offset=".5" stop-color="#fff" stop-opacity="0"/><stop offset="1" stop-color="#fff"/></linearGradient><linearGradient id="p" gradientUnits="userSpaceOnUse" x1="134.792" x2="166.416" y1="113.411" y2="113.411"><stop offset="0" stop-color="#fff"/><stop offset="1" stop-color="#fff" stop-opacity="0"/></linearGradient><filter id="q" color-interpolation-filters="sRGB" filterUnits="userSpaceOnUse" height="173.213" width="173.213" x="59.894" y="30.543"><feFlood flood-opacity="0" result="BackgroundImageFix"/><feColorMatrix in="SourceAlpha" result="hardAlpha" values="0 0 0 0 0 0 0 0 0 0 0 0 0 0 0 0 0 0 127 0"/><feOffset dy="2"/><feGaussianBlur stdDeviation="12"/><feComposite in2="hardAlpha" operator="out"/><feColorMatrix values="0 0 0 0 1 0 0 0 0 1 0 0 0 0 1 0 0 0 1 0"/><feBlend in2="BackgroundImageFix" result="effect1_dropShadow_978_8657"/><feBlend in="SourceGraphic" in2="effect1_dropShadow_978_8657" result="shape"/></filter><filter id="r" color-interpolation-filters="sRGB" filterUnits="userSpaceOnUse" height="192.26" width="190.26" x="51.37" y="20.019"><feFlood flood-opacity="0" result="BackgroundImageFix"/><feColorMatrix in="SourceAlpha" result="hardAlpha" values="0 0 0 0 0 0 0 0 0 0 0 0 0 0 0 0 0 0 127 0"/><feOffset dy="2"/><feGaussianBlur stdDeviation="12"/><feComposite in2="hardAlpha" operator="out"/><feColorMatrix values="0 0 0 0 1 0 0 0 0 1 0 0 0 0 1 0 0 0 1 0"/><feBlend in2="BackgroundImageFix" result="effect1_dropShadow_978_8657"/><feBlend in="SourceGraphic" in2="effect1_dropShadow_978_8657" result="shape"/><feGaussianBlur result="effect2_foregroundBlur_978_8657" stdDeviation="12"/></filter><filter id="s" color-interpolation-filters="sRGB" filterUnits="userSpaceOnUse" height="234.246" width="290.467" x=".267" y=".877"><feFlood flood-opacity="0" result="BackgroundImageFix"/><feColorMatrix in="SourceAlpha" result="hardAlpha" values="0 0 0 0 0 0 0 0 0 0 0 0 0 0 0 0 0 0 127 0"/><feOffset/><feGaussianBlur stdDeviation="13"/><feComposite in2="hardAlpha" operator="out"/><feColorMatrix values="0 0 0 0 1 0 0 0 0 1 0 0 0 0 1 0 0 0 0.3 0"/><feBlend in2="BackgroundImageFix" result="effect1_dropShadow_978_8657"/><feBlend in="SourceGraphic" in2="effect1_dropShadow_978_8657" result="shape"/></filter><filter id="t" color-interpolation-filters="sRGB" filterUnits="userSpaceOnUse" height="71.417" width="71.417" x="110.792" y="79.702"><feFlood flood-opacity="0" result="BackgroundImageFix"/><feColorMatrix in="SourceAlpha" result="hardAlpha" values="0 0 0 0 0 0 0 0 0 0 0 0 0 0 0 0 0 0 127 0"/><feOffset dy="2"/><feGaussianBlur stdDeviation="12"/><feComposite in2="hardAlpha" operator="out"/><feColorMatrix values="0 0 0 0 1 0 0 0 0 1 0 0 0 0 1 0 0 0 1 0"/><feBlend in2="BackgroundImageFix" result="effect1_dropShadow_978_8657"/><feBlend in="SourceGraphic" in2="effect1_dropShadow_978_8657" result="shape"/></filter><filter id="u" color-interpolation-filters="sRGB" filterUnits="userSpaceOnUse" height="71.417" width="71.417" x="110.792" y="79.702"><feFlood flood-opacity="0" result="BackgroundImageFix"/><feColorMatrix in="SourceAlpha" result="hardAlpha" values="0 0 0 0 0 0 0 0 0 0 0 0 0 0 0 0 0 0 127 0"/><feOffset dy="2"/><feGaussianBlur stdDeviation="12"/><feComposite in2="hardAlpha" operator="out"/><feColorMatrix values="0 0 0 0 1 0 0 0 0 1 0 0 0 0 1 0 0 0 1 0"/><feBlend in2="BackgroundImageFix" result="effect1_dropShadow_978_8657"/><feBlend in="SourceGraphic" in2="effect1_dropShadow_978_8657" result="shape"/></filter><radialGradient id="v" cx="168.442" cy="115.149" gradientUnits="userSpaceOnUse" r="84.5479"><stop offset="0" stop-color="#fff" stop-opacity="0"/><stop offset="1" stop-color="#fff"/></radialGradient><radialGradient id="w" cx="146.5" cy="115.149" gradientUnits="userSpaceOnUse" r="71.13"><stop offset=".573" stop-color="#fff" stop-opacity="0"/><stop offset="1" stop-color="#fff"/></radialGradient><radialGradient id="x" cx="0" cy="0" gradientTransform="matrix(-214.89515356 161.70589531 -123.58229044 -164.23170739 145.499468 117.999616)" gradientUnits="userSpaceOnUse" r="1"><stop offset=".552" stop-color="#fff" stop-opacity="0"/><stop offset="1" stop-color="#fff"/></radialGradient><radialGradient id="y" cx="0" cy="0" gradientTransform="matrix(386.05450843 272.91718613 -357.10871 505.14747513 -80.724754 -42.623515)" gradientUnits="userSpaceOnUse" r="1"><stop offset=".111" stop-color="#fffefe" stop-opacity=".84"/><stop offset=".336" stop-color="#fff" stop-opacity="0"/><stop offset=".802" stop-color="#fff" stop-opacity="0"/><stop offset="1" stop-color="#fff"/></radialGradient><mask id="z" fill="#fff"><path clip-rule="evenodd" d="m30.2666 26.877c-2.2091 0-4 1.7908-4 4v174.246c0 2.209 1.7909 4 4 4h230.4664c2.21 0 4-1.791 4-4v-174.246c0-2.2092-1.79-4-4-4zm8.393 11.1293c-.5522 0-1 .4477-1 1v156.5957c0 .552.4478 1 1 1h213.6814c.552 0 1-.448 1-1v-156.5957c0-.5523-.448-1-1-1z" fill="#fff" fill-rule="evenodd"/></mask><g opacity=".3"><g filter="url(#q)"><path d="m146.5 52.5427c16.602 0 32.524 6.5939 44.264 18.3315 11.741 11.7376 18.339 27.6577 18.343 44.2598.004 16.601-6.586 32.525-18.32 44.268-11.735 11.744-27.653 18.346-44.255 18.354s-32.527-6.578-44.273-18.31c-11.7469-11.731-18.3527-27.648-18.3651-44.25-.0125-16.6015 6.5694-32.5282 18.2981-44.2776 11.729-11.7493 27.644-18.3591 44.246-18.3757z" fill="url(#v)" shape-rendering="crispEdges"/></g><g filter="url(#r)"><path d="m146.5 44.0194c18.862 0 36.951 7.4915 50.29 20.8272 13.339 13.3356 20.835 31.4231 20.84 50.2844.005 18.862-7.482 36.954-20.815 50.296-13.332 13.342-31.418 20.843-50.279 20.852-18.862.01-36.956-7.473-50.3012-20.802-13.3456-13.329-20.8507-31.413-20.8649-50.274-.0141-18.8622 7.4639-36.9573 20.7895-50.3062 13.3256-13.349 31.4076-20.8586 50.2696-20.8774z" fill="url(#w)" shape-rendering="crispEdges"/></g></g><g filter="url(#s)"><path clip-rule="evenodd" d="m30.2666 26.877c-2.2091 0-4 1.7908-4 4v174.246c0 2.209 1.7909 4 4 4h230.4664c2.21 0 4-1.791 4-4v-174.246c0-2.2092-1.79-4-4-4zm8.393 11.1293c-.5522 0-1 .4477-1 1v156.5957c0 .552.4478 1 1 1h213.6814c.552 0 1-.448 1-1v-156.5957c0-.5523-.448-1-1-1z" fill="url(#x)" fill-opacity=".32" fill-rule="evenodd" shape-rendering="crispEdges"/><path d="m27.2666 30.877c0-1.6569 1.3431-3 3-3v-2c-2.7614 0-5 2.2385-5 5zm0 174.246v-174.246h-2v174.246zm3 3c-1.6569 0-3-1.343-3-3h-2c0 2.762 2.2386 5 5 5zm230.4664 0h-230.4664v2h230.4664zm3-3c0 1.657-1.343 3-3 3v2c2.762 0 5-2.238 5-5zm0-174.246v174.246h2v-174.246zm-3-3c1.657 0 3 1.3431 3 3h2c0-2.7615-2.238-5-5-5zm-230.4664 0h230.4664v-2h-230.4664zm8.393 11.1293v-2c-1.1045 0-2 .8954-2 2zm0 156.5957v-156.5957h-2v156.5957zm0 0h-2c0 1.104.8955 2 2 2zm213.6814 0h-213.6814v2h213.6814zm0 0v2c1.105 0 2-.896 2-2zm0-156.5957v156.5957h2v-156.5957zm0 0h2c0-1.1046-.895-2-2-2zm-213.6814 0h213.6814v-2h-213.6814z" fill="url(#y)" fill-opacity=".17" mask="url(#z)"/></g><rect fill="#494350" height="89.235" rx="3.75" stroke="url(#a)" stroke-width=".5" width="176.269" x="58.365" y="69.324"/><g stroke-linecap="round"><path d="m65.8345 80.584h46.5645" opacity=".5" stroke="url(#c)"/><path d="m65.8345 141.09h25.6523" opacity=".5" stroke="url(#d)"/><path d="m202.163 80.584h25.652" opacity=".5" stroke="url(#e)"/><path d="m207.741 105.723v31.004" opacity=".5" stroke="url(#f)"/><path d="m65.8345 83.373h46.5645" opacity=".5" stroke="url(#g)"/><path d="m65.8345 143.879h25.6523" opacity=".5" stroke="url(#h)"/><path d="m202.163 83.373h25.652" opacity=".5" stroke="url(#i)"/><path d="m204.952 105.723v31.004" opacity=".5" stroke="url(#j)"/><path d="m65.8345 86.1621h46.5645" opacity=".5" stroke="url(#k)"/><path d="m65.8345 146.668h25.6523" opacity=".5" stroke="url(#l)"/><path d="m202.163 86.1621h25.652" opacity=".5" stroke="url(#m)"/><path d="m202.163 105.723v31.004" opacity=".5" stroke="url(#n)"/><path d="m67.2285 113.863h78.9095v34.297h81.419" stroke="url(#o)"/></g><g filter="url(#t)"><path d="m146.5 101.702c3.105 0 6.083 1.233 8.279 3.429 2.195 2.195 3.429 5.172 3.43 8.277s-1.232 6.083-3.426 8.279c-2.195 2.196-5.172 3.431-8.277 3.433-3.105.001-6.083-1.231-8.28-3.425s-3.432-5.17-3.434-8.275c-.003-3.105 1.228-6.084 3.422-8.281 2.193-2.197 5.17-3.434 8.275-3.437z" fill="url(#p)" shape-rendering="crispEdges"/></g><g filter="url(#u)"><path d="m146.5 101.702c3.105 0 6.083 1.233 8.279 3.429 2.195 2.195 3.429 5.172 3.43 8.277s-1.232 6.083-3.426 8.279c-2.195 2.196-5.172 3.431-8.277 3.433-3.105.001-6.083-1.231-8.28-3.425s-3.432-5.17-3.434-8.275c-.003-3.105 1.228-6.084 3.422-8.281 2.193-2.197 5.17-3.434 8.275-3.437z" fill="url(#p)" shape-rendering="crispEdges"/></g></svg>