<svg fill="none" height="148" viewBox="0 0 345 148" width="345" xmlns="http://www.w3.org/2000/svg" xmlns:xlink="http://www.w3.org/1999/xlink"><linearGradient id="a"><stop offset="0" stop-color="#fff"/><stop offset="1" stop-color="#fff" stop-opacity="0"/></linearGradient><linearGradient id="b" gradientUnits="userSpaceOnUse" x1="222.116" x2="354.758" xlink:href="#a" y1="74.053" y2="74.053"/><linearGradient id="c" gradientUnits="userSpaceOnUse" x1="24.665" x2="56.29" xlink:href="#a" y1="74.845" y2="74.845"/><linearGradient id="d"><stop offset="0" stop-color="#fff"/><stop offset=".309" stop-color="#999" stop-opacity="0"/><stop offset=".98" stop-color="#999"/></linearGradient><linearGradient id="e" gradientUnits="userSpaceOnUse" x1="59.792" x2="36.374" xlink:href="#d" y1="74.846" y2="74.846"/><linearGradient id="f" gradientUnits="userSpaceOnUse" x1="59.791" x2="36.374" xlink:href="#d" y1="74.847" y2="74.847"/><linearGradient id="g" gradientUnits="userSpaceOnUse" x1="73.486" x2="50.069" xlink:href="#d" y1="74.848" y2="74.848"/><linearGradient id="h" gradientUnits="userSpaceOnUse" x1="397.556" x2="-239.076" y1="41.193" y2="41.193"><stop offset="0" stop-color="#fff"/><stop offset=".5" stop-color="#fff" stop-opacity="0"/><stop offset="1" stop-color="#fff"/></linearGradient><linearGradient id="i" gradientUnits="userSpaceOnUse" x1="104.268" x2="137.878" xlink:href="#d" y1="74.634" y2="74.634"/><linearGradient id="j" gradientUnits="userSpaceOnUse" x1="117.953" x2="164.193" xlink:href="#d" y1="74.634" y2="74.634"/><linearGradient id="k" gradientUnits="userSpaceOnUse" x1="128.772" x2="193.374" xlink:href="#d" y1="74.634" y2="74.634"/><linearGradient id="l" gradientUnits="userSpaceOnUse" x1="283.924" x2="249.627" xlink:href="#a" y1="70.075" y2="79.265"/><filter id="m" color-interpolation-filters="sRGB" filterUnits="userSpaceOnUse" height="146.219" width="146.219" x="198.116" y=".943"><feFlood flood-opacity="0" result="BackgroundImageFix"/><feColorMatrix in="SourceAlpha" result="hardAlpha" values="0 0 0 0 0 0 0 0 0 0 0 0 0 0 0 0 0 0 127 0"/><feOffset/><feGaussianBlur stdDeviation="12"/><feComposite in2="hardAlpha" operator="out"/><feColorMatrix values="0 0 0 0 1 0 0 0 0 1 0 0 0 0 1 0 0 0 1 0"/><feBlend in2="BackgroundImageFix" result="effect1_dropShadow_978_8699"/><feBlend in="SourceGraphic" in2="effect1_dropShadow_978_8699" result="shape"/></filter><filter id="n" color-interpolation-filters="sRGB" filterUnits="userSpaceOnUse" height="71.417" width="71.417" x=".665" y="39.136"><feFlood flood-opacity="0" result="BackgroundImageFix"/><feColorMatrix in="SourceAlpha" result="hardAlpha" values="0 0 0 0 0 0 0 0 0 0 0 0 0 0 0 0 0 0 127 0"/><feOffset/><feGaussianBlur stdDeviation="12"/><feComposite in2="hardAlpha" operator="out"/><feColorMatrix values="0 0 0 0 1 0 0 0 0 1 0 0 0 0 1 0 0 0 1 0"/><feBlend in2="BackgroundImageFix" result="effect1_dropShadow_978_8699"/><feBlend in="SourceGraphic" in2="effect1_dropShadow_978_8699" result="shape"/></filter><filter id="o" color-interpolation-filters="sRGB" filterUnits="userSpaceOnUse" height="31.417" width="31.417" x="32.374" y="63.138"><feFlood flood-opacity="0" result="BackgroundImageFix"/><feColorMatrix in="SourceAlpha" result="hardAlpha" values="0 0 0 0 0 0 0 0 0 0 0 0 0 0 0 0 0 0 127 0"/><feOffset dy="4"/><feGaussianBlur stdDeviation="2"/><feComposite in2="hardAlpha" operator="out"/><feColorMatrix values="0 0 0 0 0 0 0 0 0 0 0 0 0 0 0 0 0 0 0.25 0"/><feBlend in2="BackgroundImageFix" result="effect1_dropShadow_978_8699"/><feBlend in="SourceGraphic" in2="effect1_dropShadow_978_8699" result="shape"/></filter><filter id="p" color-interpolation-filters="sRGB" filterUnits="userSpaceOnUse" height="31.417" width="31.417" x="32.374" y="63.139"><feFlood flood-opacity="0" result="BackgroundImageFix"/><feColorMatrix in="SourceAlpha" result="hardAlpha" values="0 0 0 0 0 0 0 0 0 0 0 0 0 0 0 0 0 0 127 0"/><feOffset dy="4"/><feGaussianBlur stdDeviation="2"/><feComposite in2="hardAlpha" operator="out"/><feColorMatrix values="0 0 0 0 0 0 0 0 0 0 0 0 0 0 0 0 0 0 0.25 0"/><feBlend in2="BackgroundImageFix" result="effect1_dropShadow_978_8699"/><feBlend in="SourceGraphic" in2="effect1_dropShadow_978_8699" result="shape"/></filter><filter id="q" color-interpolation-filters="sRGB" filterUnits="userSpaceOnUse" height="31.417" width="31.417" x="46.069" y="63.14"><feFlood flood-opacity="0" result="BackgroundImageFix"/><feColorMatrix in="SourceAlpha" result="hardAlpha" values="0 0 0 0 0 0 0 0 0 0 0 0 0 0 0 0 0 0 127 0"/><feOffset dy="4"/><feGaussianBlur stdDeviation="2"/><feComposite in2="hardAlpha" operator="out"/><feColorMatrix values="0 0 0 0 0 0 0 0 0 0 0 0 0 0 0 0 0 0 0.25 0"/><feBlend in2="BackgroundImageFix" result="effect1_dropShadow_978_8699"/><feBlend in="SourceGraphic" in2="effect1_dropShadow_978_8699" result="shape"/></filter><filter id="r" color-interpolation-filters="sRGB" filterUnits="userSpaceOnUse" height="74.292" width="74.292" x="234.079" y="36.332"><feFlood flood-opacity="0" result="BackgroundImageFix"/><feColorMatrix in="SourceAlpha" result="hardAlpha" values="0 0 0 0 0 0 0 0 0 0 0 0 0 0 0 0 0 0 127 0"/><feOffset/><feGaussianBlur stdDeviation="12"/><feComposite in2="hardAlpha" operator="out"/><feColorMatrix values="0 0 0 0 1 0 0 0 0 1 0 0 0 0 1 0 0 0 1 0"/><feBlend in2="BackgroundImageFix" result="effect1_dropShadow_978_8699"/><feBlend in="SourceGraphic" in2="effect1_dropShadow_978_8699" result="shape"/></filter><g filter="url(#m)"><path d="m271.226 24.9434c13.022 0 25.512 5.1724 34.721 14.3796 9.21 9.2072 14.385 21.6952 14.389 34.7178.003 13.0225-5.166 25.5133-14.371 34.7252-9.205 9.212-21.692 14.39-34.714 14.397-13.023.006-25.515-5.16-34.729-14.362-9.214-9.203-14.396-21.6886-14.406-34.7111-.01-13.0226 5.153-25.5158 14.354-34.7322 9.2-9.2164 21.684-14.4012 34.707-14.4143z" fill="url(#b)" shape-rendering="crispEdges"/></g><g filter="url(#n)"><path d="m36.374 63.1359c3.1049 0 6.0825 1.2332 8.2783 3.4284 2.1957 2.1951 3.4296 5.1725 3.4304 8.2773s-1.2316 6.0829-3.4262 8.2791c-2.1947 2.1963-5.1717 3.431-8.2766 3.4325-3.1048.0016-6.0831-1.2301-8.28-3.4242-2.1968-2.1941-3.4322-5.1709-3.4345-8.2757s1.2286-6.0834 3.4221-8.2808c2.1935-2.1973 5.17-3.4335 8.2748-3.4366z" fill="url(#c)" shape-rendering="crispEdges"/></g><g filter="url(#o)"><path d="m48.0829 63.3874c3.0385 0 5.9526 1.2068 8.1015 3.3551 2.1488 2.1483 3.3564 5.0621 3.3572 8.1006.0007 3.0386-1.2054 5.953-3.3531 8.1024-2.1478 2.1493-5.0613 3.3577-8.0998 3.3592s-5.9533-1.2039-8.1032-3.3511-3.359-5.0605-3.3612-8.099c-.0023-3.0385 1.2023-5.9535 3.349-8.104 2.1467-2.1504 5.0596-3.3602 8.0982-3.3632z" shape-rendering="crispEdges" stroke="url(#e)" stroke-width=".5"/></g><g filter="url(#p)"><path d="m48.0824 63.3886c3.0386 0 5.9527 1.2068 8.1015 3.3551s3.3564 5.0621 3.3572 8.1007c.0008 3.0385-1.2053 5.9529-3.3531 8.1023-2.1477 2.1494-5.0613 3.3577-8.0998 3.3592s-5.9533-1.2039-8.1032-3.3511-3.3589-5.0605-3.3612-8.099 1.2024-5.9535 3.3491-8.104c2.1467-2.1504 5.0596-3.3602 8.0981-3.3632z" shape-rendering="crispEdges" stroke="url(#f)" stroke-width=".5"/></g><g filter="url(#q)"><path d="m61.7776 63.3896c3.0386 0 5.9527 1.2068 8.1015 3.3551s3.3564 5.0621 3.3572 8.1006c.0008 3.0386-1.2053 5.953-3.3531 8.1024-2.1478 2.1493-5.0613 3.3577-8.0998 3.3592s-5.9533-1.2039-8.1032-3.3511-3.3589-5.0605-3.3612-8.099 1.2024-5.9535 3.3491-8.104c2.1466-2.1504 5.0596-3.3602 8.0981-3.3632z" shape-rendering="crispEdges" stroke="url(#g)" stroke-width=".5"/></g><path d="m73.4864 74.8445h186.0306" stroke="url(#h)" stroke-linecap="round"/><g fill="#fafafa" fill-opacity=".05" stroke-width=".5"><rect height="33.106" rx="3.75" stroke="url(#i)" width="33.11" x="104.518" y="58.081"/><rect height="45.736" rx="3.75" stroke="url(#j)" width="45.74" x="118.203" y="51.766"/><rect height="64.095" rx="3.75" stroke="url(#k)" width="64.102" x="129.022" y="42.587"/></g><g filter="url(#r)"><path d="m274.628 86.1761c-3.367.9022-6.955.4301-9.974-1.3125s-5.223-4.6131-6.126-7.9801-.432-6.9548 1.31-9.9744 4.612-5.2238 7.979-6.1277c3.366-.904 6.954-.4337 9.975 1.3075 3.02 1.7411 5.224 4.6105 6.129 7.977s.436 6.9546-1.305 9.9751c-1.74 3.0205-4.609 5.2261-7.975 6.1317z" fill="url(#l)" shape-rendering="crispEdges"/></g></svg>