<svg height="512pt" preserveAspectRatio="xMidYMid meet" viewBox="0 0 512 512" width="512pt" xmlns="http://www.w3.org/2000/svg"><g transform="matrix(.1 0 0 -.1 0 512)"><path d="m2345 5002c-38-62-72-115-77-118s-6-15-2-26c8-25 121-217 141-238 11-12 44-15 163-15l150-1 40 64c22 35 40 65 40 67 0 3 16 29 35 59s35 59 35 64c0 8-135 241-146 251-3 3-73 5-158 6l-153 1z"/><path d="m926 4535-73-122 18-24c10-13 19-27 19-30 0-4 25-47 55-95l56-89h140c77 0 143 2 147 5 9 7 142 227 142 236 0 5-126 220-137 234-2 2-69 4-149 5l-145 1z"/><path d="m3813 4518c-31-50-56-96-56-102s25-53 57-103l57-93h114 114l54 88c29 48 56 92 60 98 3 6-18 50-48 98s-55 91-55 95c0 5-54 9-120 9h-120z"/><path d="m1923 4531c-31-36-63-73-70-82-11-13-7-30 23-105 20-49 39-92 42-96 4-3 27-9 52-13 25-3 56-8 70-10 86-16 85-16 116 18 53 58 104 124 104 136 0 15-61 163-72 176-5 5-54 17-109 26l-100 15z"/><path d="m3133 4493c-26-32-50-60-53-63-41-41-42-43-15-116 47-125 58-144 79-145 12 0 30-2 41-5 11-2 52-9 90-14l70-11 35 38c96 104 121 148 99 178-4 6-20 42-35 80-15 39-30 73-33 77-4 4-24 10-46 13-22 4-67 10-100 16-33 5-65 9-72 9-6 0-33-26-60-57z"/><path d="m2663 4308c-21-18-43-38-49-44-7-6-26-23-44-37l-32-27 23-106 24-106 105-33c83-27 108-31 121-22 9 7 48 39 86 71l69 59-23 106c-14 58-25 106-26 107-5 4-201 64-208 64-5 0-25-15-46-32z"/><path d="m1645 4092c-17-15-51-44-76-65l-46-38 21-100 22-101 89-29c50-16 96-29 104-29 12 0 37 19 146 113l21 17-20 99-20 98-86 28c-114 38-120 39-155 7z"/><path d="m2149 3986c-48-34-85-68-84-76s6-46 10-85c4-38 8-79 9-89 2-11 11-23 22-27 10-4 56-23 101-42l82-36 89 65 89 66-8 41c-4 23-10 68-12 100-3 32-7 60-9 62-4 4-200 85-202 84 0 0-40-29-87-63z"/><path d="m887 3978c-14-18-33-42-43-53-11-11-38-43-62-72l-42-51 16-44c9-24 25-62 35-85s24-60 31-82c9-29 19-41 33-42 24-1 40-3 163-22l92-13 78 90c43 50 82 97 86 104 5 8-10 61-39 135-27 67-49 123-49 123-1 1-55 9-121 18-66 10-127 19-136 22-10 3-26-8-42-28z"/><path d="m3016 3930c-36-27-75-54-87-61-20-10-21-17-16-78 3-36 9-87 13-113l6-46 99-41c55-23 103-41 108-41 14 0 192 131 187 138-2 4-7 34-11 67s-8 69-10 80c-1 11-3 29-4 40-1 14-15 26-49 39-26 11-70 30-99 43-28 12-56 23-61 23s-39-22-76-50z"/><path d="m3536 3888c-87-73-87-73-82-113 7-49 12-76 29-139l13-50 104-33c58-18 110-33 115-33 11 0 66 45 141 115l42 40-20 80c-25 100-26 107-27 122-1 7-47 27-103 44-57 18-108 34-114 36-7 2-51-29-98-69z"/><path d="m4143 3786c-10-12-40-48-68-81-27-33-54-63-59-66-12-9-1-47 42-150l37-87 105-16c116-18 150-20 150-8 0 4 19 27 41 52 76 84 99 113 98 124 0 6-20 56-43 111l-42 100-122 21-121 21z"/><path d="m2550 3673c-47-8-86-16-88-18s-16-38-32-81c-33-89-35-81 43-168l44-48 85 12c46 6 89 15 94 18 6 4 23 42 38 85 31 89 34 79-49 163l-50 52z"/><path d="m1427 3572-78-57 7-45c6-44 11-85 13-126 1-17 20-30 98-63l96-42 85 58 84 58-6 55c-4 30-8 64-11 75-2 11-4 32-4 46-1 23-11 30-94 62-51 20-97 37-102 37-6-1-45-27-88-58z"/><path d="m80 3403c-36-60-64-113-64-120 1-6 30-59 65-117l63-106h136 135l68 111 68 112-68 113-68 114h-135-135z"/><path d="m1951 3494c-36-7-68-17-71-21-4-5-20-41-35-81l-28-73 49-51c57-60 77-77 84-73 3 2 28 6 56 10 104 13 104 13 135 100l28 80-32 35c-93 101-83 97-186 74z"/><path d="m4704 3463c-13-17-24-34-24-37s-19-35-42-72l-42-67 24-41c13-22 42-70 65-106l42-66 114 2c63 1 119 2 125 3 11 1 111 155 127 194 7 18-5 42-95 180l-27 42h-121l-121 1z"/><path d="m3130 3473-75-14-31-88-31-88 66-70 66-70 87 16c48 9 91 21 96 26 9 10 62 150 62 164 0 5-26 37-57 72-64 72-67 73-183 52z"/><path d="m3659 3347c-81-58-78-50-65-166 7-55 19-81 40-81 6 0 40-13 75-29l64-29 74 52 74 51-6 85c-3 47-12 90-18 96-7 6-30 18-52 27-22 8-56 22-76 31l-37 15z"/><path d="m974 3362c-17-15-50-43-73-62l-41-35 16-73c25-119 21-114 124-145 101-31 95-32 152 25 10 9 33 29 53 43 25 20 34 33 31 49-20 110-30 153-38 162-8 11-164 64-184 64-5 0-23-13-40-28z"/><path d="m2549 3197c-20-23-48-55-61-71l-25-30 30-75c17-42 35-81 41-88 11-11 29-14 141-28l50-6 57 72c62 79 61 66 17 166-11 24-19 47-19 52 0 15-12 19-86 31-38 5-78 12-89 15-14 3-30-8-56-38z"/><path d="m4043 3040c-83-72-91-83-88-110 2-17 7-34 9-39 3-5 8-25 11-45 4-20 12-55 19-78 13-47 4-42 164-91l83-26 72 63c40 34 82 70 93 80 19 16 20 23 12 60-5 22-12 50-14 61-3 11-10 45-17 75l-13 55-95 31c-154 50-133 54-236-36z"/><path d="m2048 3009-57-67 31-77c36-88 42-92 151-100l72-6 32 43c17 24 40 52 51 64 20 21 20 21-11 100-16 43-30 80-31 81-2 2-129 23-161 27-14 1-38-19-77-65z"/><path d="m1585 3049c-29-8-79-17-101-18-7-1-14-11-17-23-3-13-17-56-32-96-30-84-37-65 60-167 45-48 53-52 88-49 21 2 41 6 46 8 5 3 30 8 57 11 60 8 67 14 84 67 8 24 18 49 23 56 5 6 7 12 4 12s0 15 8 34l14 33-66 72c-71 77-83 81-168 60z"/><path d="m3528 3005c-2-3-27-8-54-11-26-3-55-9-63-13-7-5-28-47-46-94l-32-85 64-74 64-75 100 17c54 9 101 19 103 21 1 2 17 44 35 93l31 90-29 30c-16 17-44 48-62 69-27 30-39 37-69 37-20 0-39-2-42-5z"/><path d="m2927 2868c-26-32-50-64-53-71-3-8 10-47 29-88l34-75 82-10 82-9 36 40c86 95 80 74 47 160-32 84-33 84-154 103l-55 8z"/><path d="m463 2876c-8-13-70-88-126-150-31-36-32-29 25-165 25-60 49-105 58-106 8-2 47-7 85-13 39-6 90-14 115-17l45-5 52 62c29 35 65 78 81 97l30 33-47 116-47 117-72 12c-39 6-95 15-124 18-29 4-56 9-60 11-4 3-10-2-15-10z"/><path d="m1090 2804c-45-32-75-61-75-72 1-55 19-163 29-171 13-10 157-71 169-71 4 0 41 23 83 52l75 52-6 75c-9 117-6 113-103 154-48 20-89 37-92 36-3 0-39-25-80-55z"/><path d="m4382 2597-81-95 48-119 49-118 48-7c27-4 67-10 89-12 23-3 59-8 81-11l40-7 64 78c36 43 72 87 82 99 15 20 14 27-31 135l-47 115-69 12c-39 6-97 15-131 18l-61 7z"/><path d="m3829 2566c-41-29-73-59-71-65 1-7 5-45 9-86 3-40 9-77 12-82s45-26 93-45l86-37 81 59c45 33 79 65 76 72-2 7-6 39-9 71-10 102-9 101-100 136-46 17-88 31-93 31s-43-24-84-54z"/><path d="m1954 2562c-21-26-44-53-51-60-18-19-17-32 16-108 26-61 33-70 63-76 61-12 148-18 148-10 0 4 12 22 28 38 15 16 37 41 49 55l23 25-28 69c-15 39-30 75-34 81s-34 14-65 18c-32 4-70 9-84 11-22 4-33-3-65-43z"/><path d="m860 2439c-107-89-160-143-156-158 3-9 7-27 10-41 11-56 39-165 42-169 2-2 55-21 116-41 120-40 122-40 174 7 17 15 54 48 83 72 32 27 50 50 47 60-2 9-14 62-27 118l-23 103-95 29c-140 43-143 44-171 20z"/><path d="m1610 2450c-102-18-116-21-131-25-9-3-28-40-45-87-16-45-30-85-32-89s9-20 23-35c109-118 106-116 139-110 17 3 61 10 98 16l66 12 35 91c32 85 33 93 18 108-9 8-38 41-66 72-27 31-52 56-55 56-3-1-25-5-50-9z"/><path d="m2871 2395-53-65 30-77c29-77 30-78 73-89 25-6 66-14 92-17l47-6 55 66c62 72 61 65 15 168l-28 62-70 11c-39 7-79 12-90 12s-40-27-71-65z"/><path d="m3539 2416c-4-4-22-7-115-22l-42-6-34-96-35-97 65-72c43-48 73-73 86-73 12 1 59 9 105 18l83 17 34 85c18 47 31 92 29 100-3 8-29 42-60 75-30 33-54 63-55 68 0 7-53 10-61 3z"/><path d="m2400 2231c-9-9-38-41-63-72l-47-56 34-84 34-84 44-7c23-4 68-10 98-13l55-5 45 56c25 31 49 62 54 69 7 9-1 41-23 98l-33 84-90 15c-81 13-92 13-108-1z"/><path d="m3956 2026-69-63 13-49c7-27 14-65 17-84s8-39 13-43c13-15 184-66 196-59 7 4 41 33 77 64l65 58-14 62c-27 127-21 118-114 150-46 15-91 28-100 28-8-1-46-29-84-64z"/><path d="m1277 2015c-42-31-74-61-72-68 6-19 17-110 16-135-1-18 10-27 53-46 122-54 118-54 180-11 97 67 101 75 82 170-3 11-5 32-5 47-1 25-30 42-165 94-7 3-47-20-89-51z"/><path d="m4691 2015c-15-22-46-73-70-113l-43-72 67-113 67-113 136 1h136l69 114 68 113-35 54c-20 30-36 56-36 58 0 13-65 106-74 107-6 1-67 2-135 3l-123 1z"/><path d="m145 2020c-3-11-11-20-16-20s-9-4-9-10c0-5-21-43-46-84l-47-75 64-106 63-105h127 127l50 83c83 139 82 114 12 233l-62 104h-128c-120 0-129-1-135-20z"/><path d="m1930 1992c-41-9-76-17-78-18s-18-40-36-87l-34-85 64-69 65-69 94 15 94 16 32 87 31 87-21 27c-51 65-103 114-119 113-9-1-51-8-92-17z"/><path d="m3054 1985c-33-6-68-14-76-17-8-4-27-40-42-82-32-86-35-73 44-159 50-54 45-53 170-26l49 10 29 77 29 77-28 35c-57 71-87 100-100 99-8-1-41-7-75-14z"/><path d="m3485 1818c-38-28-73-56-77-62-9-12-2-126 10-171 7-25 20-34 100-67l92-39 85 58c82 56 84 59 80 93-2 19-7 60-10 91-4 31-10 61-14 67-7 12-165 82-184 82-7 0-43-23-82-52z"/><path d="m2515 1743c-44-8-83-17-86-21-8-9-59-145-59-157 0-6 26-39 58-75 57-65 57-65 97-58 22 4 54 9 70 12 68 11 76 18 105 103l28 80-60 66c-33 37-63 67-67 66-3-1-42-8-86-16z"/><path d="m754 1703c-22-26-41-50-44-53s-20-22-38-43c-34-40-35-66-6-112 7-11 14-24 15-30 2-15 10-36 30-82 14-35 23-43 43-43 14 0 28-1 31-1 8-3 169-29 177-29 4 0 41 41 84 91l77 90-43 110c-33 84-48 110-64 114-12 2-55 9-96 15s-87 13-101 16c-23 4-33-3-65-43z"/><path d="m1327 1527c-45-39-85-73-89-76-6-6 37-219 47-229 2-2 32-13 67-22 35-10 84-25 109-33l46-14 48 41c27 23 66 57 88 77l41 36-23 104c-13 57-26 107-30 111s-55 23-115 42l-108 34z"/><path d="m4008 1592c-3-10-64-82-120-145-21-23-38-47-38-54 0-11 29-93 50-138 5-11 18-41 29-67 15-37 25-48 43-49 13 0 30-2 38-3 17-4 121-17 132-17 4 0 21-4 38-9 27-8 34-5 58 22 15 17 32 36 37 42 103 115 126 151 108 170-4 4-26 53-48 108-44 111-42 109-141 122-27 3-76 10-109 16-73 12-73 12-77 2z"/><path d="m1903 1507c-87-60-105-76-98-87 2-3 6-34 10-70 11-108 13-122 22-130 4-4 52-26 105-48l97-40 36 24c19 13 60 42 91 65l55 41-7 79c-12 144-6 134-121 183l-103 44z"/><path d="m2769 1429c-80-53-112-85-103-101 3-5 8-35 10-66 6-68 11-98 18-111 4-5 39-22 79-37 39-15 76-31 82-36 17-15 44-8 92 25 26 17 50 34 53 37s20 16 38 29c19 14 31 29 28 37s-8 46-11 86c-10 113 3 100-166 168l-46 19z"/><path d="m3288 1324c-40-35-76-64-79-64-4 0-3-17 1-37 5-21 11-49 13-63 3-14 10-44 16-67 11-41 13-43 79-62 146-43 128-45 207 23 39 34 73 65 76 69 4 5 0 34-7 65-7 32-17 75-21 96-8 39-9 40-93 67-47 15-93 30-102 32-11 3-44-19-90-59z"/><path d="m2254 1124c-43-36-82-70-85-76-6-9 4-57 35-167l12-45 104-33 104-33 30 25c17 13 55 46 84 72l53 48-23 107c-18 89-25 107-42 111-19 5-125 36-173 51-14 5-41-12-99-60z"/><path d="m1706 889-70-82 21-61c12-34 31-82 42-107l21-47 62-7c35-4 72-9 83-11 71-13 84-12 98 9 9 12 28 36 44 53 15 16 40 46 55 66l28 36-21 49c-11 26-27 62-34 78-7 17-16 40-19 52-5 17-17 23-59 28-29 4-61 9-72 11s-40 6-65 10l-45 5z"/><path d="m3842 931c-9-6-72-102-85-131-4-8-20-35-35-60l-28-44 73-120 72-119h141c108 0 145 4 154 14 16 17 136 217 136 226 0 4-32 59-70 123l-70 117h-139c-76 0-143-2-149-6z"/><path d="m2984 887c-5-8-29-38-54-67s-50-60-56-68c-8-11-2-36 26-103 20-49 39-91 41-93 3-3 18-7 34-10 74-13 161-26 170-26 6 0 41 36 78 80l68 80-39 92c-41 99-41 99-134 112-24 3-62 9-84 12-31 4-44 2-50-9z"/><path d="m985 823c-21-37-48-80-59-95l-19-27 59-98 59-98 117-3 116-3 60 100 60 99-57 94-57 93-120 3-120 3z"/><path d="m2394 487c-6-12-39-67-72-122-59-96-71-128-54-139 5-3 38-55 73-115l64-111h157 157l75 126c42 69 76 127 76 130s-27 48-60 101c-33 52-60 98-60 102-1 3-9 16-19 29-18 21-26 22-173 22-149 0-153-1-164-23z"/></g></svg>